<svg width="24" height="24" viewBox="0 0 24 24" fill="none" xmlns="http://www.w3.org/2000/svg">
<path d="M22.125 8.01187C21.9846 7.85153 21.8116 7.72294 21.6176 7.63468C21.4237 7.54642 21.2131 7.5005 21 7.5H17.5903L12.5625 1.75594C12.4921 1.67613 12.4055 1.61222 12.3086 1.56844C12.2116 1.52466 12.1064 1.50201 12 1.50201C11.8936 1.50201 11.7884 1.52466 11.6914 1.56844C11.5944 1.61222 11.5079 1.67613 11.4375 1.75594L6.40966 7.5H2.99998C2.78629 7.5 2.57507 7.54566 2.38046 7.63392C2.18585 7.72218 2.01234 7.851 1.87156 8.01176C1.73078 8.17251 1.62596 8.36149 1.56414 8.56604C1.50232 8.77059 1.48492 8.98599 1.5131 9.19781L2.81248 18.9487C2.86065 19.3091 3.03807 19.6397 3.31175 19.8791C3.58542 20.1184 3.93671 20.2503 4.30029 20.25H19.6997C20.0632 20.2503 20.4145 20.1184 20.6882 19.8791C20.9619 19.6397 21.1393 19.3091 21.1875 18.9487L22.4878 9.19875C22.5155 8.98648 22.4975 8.77074 22.4349 8.56603C22.3723 8.36131 22.2666 8.17236 22.125 8.01187ZM7.64998 17.25C7.62468 17.2514 7.59933 17.2514 7.57404 17.25C7.38746 17.2509 7.20724 17.1823 7.06856 17.0575C6.92987 16.9327 6.84269 16.7606 6.82404 16.575L6.29904 11.325C6.27915 11.1271 6.33869 10.9294 6.46458 10.7754C6.59046 10.6213 6.77237 10.5236 6.97029 10.5037C7.16821 10.4839 7.36592 10.5434 7.51993 10.6693C7.67395 10.7952 7.77165 10.9771 7.79154 11.175L8.31654 16.425C8.33754 16.6228 8.27912 16.8208 8.15411 16.9755C8.02911 17.1303 7.84777 17.229 7.64998 17.25ZM12.75 16.5C12.75 16.6989 12.671 16.8897 12.5303 17.0303C12.3897 17.171 12.1989 17.25 12 17.25C11.8011 17.25 11.6103 17.171 11.4696 17.0303C11.329 16.8897 11.25 16.6989 11.25 16.5V11.25C11.25 11.0511 11.329 10.8603 11.4696 10.7197C11.6103 10.579 11.8011 10.5 12 10.5C12.1989 10.5 12.3897 10.579 12.5303 10.7197C12.671 10.8603 12.75 11.0511 12.75 11.25V16.5ZM8.40279 7.5L12 3.38906L15.5972 7.5H8.40279ZM17.6962 11.325L17.1712 16.575C17.1526 16.7598 17.0661 16.9312 16.9284 17.0559C16.7908 17.1806 16.6117 17.2498 16.4259 17.25C16.4006 17.2514 16.3753 17.2514 16.35 17.25C16.252 17.2402 16.1569 17.2111 16.0701 17.1645C15.9833 17.1179 15.9066 17.0547 15.8443 16.9784C15.7819 16.9021 15.7352 16.8143 15.7068 16.72C15.6784 16.6257 15.6689 16.5267 15.6787 16.4287L16.2037 11.1787C16.2236 10.9808 16.3213 10.7989 16.4753 10.673C16.6293 10.5472 16.8271 10.4876 17.025 10.5075C17.2229 10.5274 17.4048 10.6251 17.5307 10.7791C17.6566 10.9331 17.7161 11.1308 17.6962 11.3287V11.325Z" fill="#676767"/>
</svg>
